<svg width="22" height="23" viewBox="0 0 22 23" fill="none" xmlns="http://www.w3.org/2000/svg">
<path d="M3.41622 17.6116H5.12381V19.1283C5.12381 21.2678 6.23877 22.3828 8.41846 22.3828H18.5836C20.7533 22.3828 21.8783 21.2678 21.8783 19.1283V8.88279C21.8783 6.74328 20.7533 5.62832 18.5836 5.62832H16.876V4.11158C16.876 1.97207 15.751 0.857117 13.5814 0.857117H3.41622C1.24658 0.857117 0.121582 1.96203 0.121582 4.11158V14.3471C0.121582 16.4966 1.24658 17.6116 3.41622 17.6116ZM3.53676 15.6428C2.60261 15.6428 2.09033 15.1607 2.09033 14.1864V4.28234C2.09033 3.30801 2.60261 2.81582 3.53676 2.81582H13.4709C14.395 2.81582 14.9173 3.30801 14.9173 4.28234V5.62832H8.41846C6.23877 5.62832 5.12381 6.74328 5.12381 8.88279V15.6428H3.53676ZM8.52895 20.414C7.5948 20.414 7.09256 19.9319 7.09256 18.9576V9.05354C7.09256 8.07921 7.5948 7.59707 8.52895 7.59707H18.4631C19.3872 7.59707 19.9095 8.07921 19.9095 9.05354V18.9576C19.9095 19.9319 19.3872 20.414 18.4631 20.414H8.52895ZM9.80462 15.6428C9.80462 17.8426 11.2611 19.1986 13.3202 19.1986C14.7868 19.1986 15.8113 18.616 16.5144 17.2801C16.9564 16.5167 17.2778 15.5122 17.5792 14.5681C17.7098 14.116 17.9106 13.5435 17.9207 13.2924C17.9408 13.0011 17.7298 12.7801 17.4285 12.7701C17.097 12.75 16.8861 12.9509 16.6651 13.4029L15.972 14.8895C15.9118 15.0402 15.8414 15.0904 15.7611 15.0904C15.6707 15.0904 15.6205 15.0301 15.6205 14.8794V9.64618C15.6205 9.33479 15.3593 9.07363 15.0479 9.07363C14.7265 9.07363 14.4754 9.33479 14.4754 9.64618V13.4129C14.3448 13.3727 14.2243 13.3426 14.0736 13.3125V8.94305C14.0736 8.62162 13.8225 8.37051 13.5111 8.37051C13.1796 8.37051 12.9385 8.62162 12.9385 8.94305V13.2522C12.7979 13.2723 12.6473 13.2823 12.5167 13.3125V9.35488C12.5167 9.03346 12.2555 8.78234 11.924 8.78234C11.6127 8.78234 11.3515 9.03346 11.3515 9.35488V13.654C11.2008 13.7243 11.0803 13.8047 10.9598 13.875V10.9018C10.9598 10.5803 10.6986 10.3292 10.3973 10.3292C10.0658 10.3292 9.80462 10.5803 9.80462 10.9018V15.6428Z" fill="black"/>
</svg>
