<svg width="16" height="16" viewBox="0 0 16 16" fill="none" xmlns="http://www.w3.org/2000/svg">
<path d="M14.4806 2.66934L15.0456 2.07419C15.3319 1.77286 15.3545 1.35851 15.0682 1.07224L14.8723 0.868837C14.6162 0.612699 14.1868 0.650366 13.9081 0.929105L13.3205 1.50165L14.4806 2.66934ZM5.56097 10.685L7.10533 10.0371L13.9307 3.21175L12.7705 2.05913L5.94517 8.892L5.26716 10.3836C5.19182 10.5569 5.3877 10.7528 5.56097 10.685ZM2.69824 15.7399H11.4747C12.9212 15.7399 13.7725 14.8962 13.7725 13.284V5.32866L12.2658 6.82782V13.1484C12.2658 13.8716 11.8816 14.2332 11.3768 14.2332H2.79618C2.1031 14.2332 1.72642 13.8716 1.72642 13.1484V4.77871C1.72642 4.0555 2.1031 3.69389 2.79618 3.69389H9.1921L10.6913 2.1872H2.69824C1.07101 2.1872 0.219727 3.03095 0.219727 4.64311V13.284C0.219727 14.8962 1.07101 15.7399 2.69824 15.7399Z" fill="black"/>
</svg>
