<svg width="22" height="21" viewBox="0 0 22 21" fill="none" xmlns="http://www.w3.org/2000/svg">
<path d="M10.9902 20.9911C16.6855 20.9911 21.3864 16.2902 21.3864 10.6049C21.3864 4.91964 16.6754 0.21875 10.9801 0.21875C5.29485 0.21875 0.604004 4.91964 0.604004 10.6049C0.604004 16.2902 5.3049 20.9911 10.9902 20.9911ZM10.9902 18.9219C6.37967 18.9219 2.69329 15.2154 2.69329 10.6049C2.69329 5.99442 6.37967 2.29799 10.9801 2.29799C15.5906 2.29799 19.2971 5.99442 19.3071 10.6049C19.3172 15.2154 15.6007 18.9219 10.9902 18.9219ZM14.9176 7.92299L15.6408 7.19978C15.9824 6.84821 16.0024 6.43638 15.681 6.10491L15.4399 5.86384C15.1185 5.54241 14.7067 5.57255 14.3551 5.91406L13.6319 6.63728L14.9176 7.92299ZM7.89641 14.9241L14.3149 8.52567L13.0192 7.22991L6.62075 13.6283L6.05825 14.9643C5.93771 15.2757 6.23905 15.5469 6.51025 15.4464L7.89641 14.9241Z" fill="#05AAFF"/>
</svg>
