<svg width="36" height="24" viewBox="0 0 36 24" fill="none" xmlns="http://www.w3.org/2000/svg">
<rect x="0.5" y="1" width="35" height="22" rx="3.5" stroke="#CBCBCB"/>
<path d="M4 16.8897V7.12414H8.1077C8.57662 7.12414 9.04085 7.17011 9.50038 7.26207C9.9693 7.34483 10.396 7.50115 10.7805 7.73103C11.165 7.96092 11.4698 8.28736 11.6949 8.71034C11.9294 9.12414 12.0466 9.65747 12.0466 10.3103C12.0466 10.7517 11.9716 11.1609 11.8215 11.5379C11.6715 11.9149 11.4464 12.2414 11.1463 12.5172C10.8556 12.7931 10.4851 13.0092 10.0349 13.1655L12.2998 16.8897H9.7114L7.78415 13.5241H6.27893V16.8897H4ZM6.27893 11.5517H8.03737C8.30934 11.5517 8.54849 11.5287 8.75481 11.4828C8.97051 11.4276 9.15339 11.354 9.30344 11.2621C9.45349 11.1609 9.56603 11.0322 9.64106 10.8759C9.72546 10.7195 9.77236 10.531 9.78173 10.3103C9.78173 10.0069 9.70671 9.77701 9.55665 9.62069C9.41598 9.46437 9.22372 9.35402 8.97989 9.28966C8.73605 9.22529 8.4547 9.1931 8.13584 9.1931H6.27893V11.5517Z" fill="#A3A3A3"/>
<path d="M18.0843 17C17.0996 17 16.2883 16.8253 15.6506 16.4759C15.0129 16.1264 14.5393 15.6115 14.2298 14.931C13.9297 14.2506 13.7796 13.423 13.7796 12.4483V7.12414H16.0586V12.5724C16.0586 12.9678 16.1195 13.3448 16.2415 13.7034C16.3634 14.0621 16.5744 14.3563 16.8745 14.5862C17.1746 14.8069 17.5872 14.9172 18.1124 14.9172C18.647 14.9172 19.0503 14.8023 19.3222 14.5724C19.6036 14.3425 19.7958 14.0483 19.899 13.6897C20.0115 13.331 20.0678 12.9586 20.0678 12.5724V7.12414H22.3467V12.4483C22.3467 13.4138 22.1967 14.2368 21.8966 14.9172C21.5965 15.5977 21.1322 16.1172 20.5039 16.4759C19.8756 16.8253 19.069 17 18.0843 17Z" fill="#A3A3A3"/>
<path d="M28.0892 17C27.3765 17 26.7153 16.8897 26.1057 16.669C25.4961 16.4391 24.9897 16.0851 24.5864 15.6069C24.1925 15.1195 23.9487 14.4988 23.8549 13.7448H26.162C26.237 14.0299 26.373 14.2598 26.57 14.4345C26.7763 14.6092 27.0248 14.7379 27.3155 14.8207C27.6063 14.8943 27.9157 14.931 28.244 14.931C28.4691 14.931 28.6941 14.908 28.9192 14.8621C29.1443 14.8069 29.3319 14.7149 29.4819 14.5862C29.632 14.4575 29.707 14.2782 29.707 14.0483C29.707 13.8736 29.6648 13.7356 29.5804 13.6345C29.496 13.5241 29.3741 13.4368 29.2146 13.3724C29.0646 13.2989 28.877 13.2345 28.6519 13.1793C28.5113 13.1425 28.3659 13.1103 28.2158 13.0828C28.0658 13.0552 27.9204 13.023 27.7798 12.9862C27.6391 12.9494 27.4984 12.908 27.3577 12.8621C26.9357 12.7609 26.5324 12.646 26.1479 12.5172C25.7634 12.3793 25.4211 12.2046 25.121 11.9931C24.8303 11.7816 24.6005 11.5057 24.4317 11.1655C24.2629 10.8253 24.1785 10.4023 24.1785 9.89655C24.1785 9.4092 24.2629 8.9954 24.4317 8.65517C24.6099 8.30575 24.8443 8.02529 25.1351 7.81379C25.4352 7.5931 25.7587 7.42759 26.1057 7.31724C26.4621 7.1977 26.8138 7.11494 27.1608 7.06897C27.5172 7.02299 27.8454 7 28.1455 7C28.8114 7 29.4022 7.11954 29.918 7.35862C30.4432 7.5977 30.8652 7.95172 31.1841 8.42069C31.5123 8.88046 31.7093 9.45057 31.7749 10.131H29.5663C29.5288 9.89195 29.4303 9.69425 29.2709 9.53793C29.1209 9.38161 28.9239 9.26207 28.6801 9.17931C28.4456 9.09655 28.1736 9.05517 27.8642 9.05517C27.6766 9.05517 27.4937 9.07356 27.3155 9.11034C27.1467 9.13793 26.9967 9.18391 26.8654 9.24828C26.7435 9.31264 26.6403 9.4 26.5559 9.51034C26.4809 9.61149 26.4433 9.74023 26.4433 9.89655C26.4433 10.0621 26.4996 10.2046 26.6122 10.3241C26.7247 10.4345 26.8841 10.531 27.0905 10.6138C27.3062 10.6966 27.5687 10.7793 27.8782 10.8621C28.0939 10.9356 28.3143 10.9954 28.5394 11.0414C28.7739 11.0782 28.9989 11.1287 29.2146 11.1931C29.6085 11.2851 29.9696 11.3954 30.2978 11.5241C30.6355 11.6437 30.9309 11.8 31.1841 11.9931C31.4373 12.177 31.6342 12.4253 31.7749 12.7379C31.925 13.0414 32 13.4276 32 13.8966C32 14.4667 31.8921 14.9494 31.6764 15.3448C31.4607 15.731 31.1653 16.0483 30.7902 16.2966C30.4151 16.5448 29.993 16.7241 29.5241 16.8345C29.0646 16.9448 28.5863 17 28.0892 17Z" fill="#A3A3A3"/>
</svg>
