<svg width="22" height="21" viewBox="0 0 22 21" fill="none" xmlns="http://www.w3.org/2000/svg">
<path d="M10.9899 20.9911C16.6852 20.9911 21.3861 16.2902 21.3861 10.6049C21.3861 4.91964 16.6752 0.21875 10.9799 0.21875C5.29461 0.21875 0.60376 4.91964 0.60376 10.6049C0.60376 16.2902 5.30465 20.9911 10.9899 20.9911ZM10.9899 18.9219C6.37943 18.9219 2.69305 15.2154 2.69305 10.6049C2.69305 5.99442 6.37943 2.29799 10.9799 2.29799C15.5904 2.29799 19.2968 5.99442 19.3069 10.6049C19.3169 15.2154 15.6004 18.9219 10.9899 18.9219ZM9.31247 15.5569C9.76447 15.5569 10.0759 15.2455 10.0759 14.7835V13.9498H12.2857C12.577 13.9498 12.7578 13.7489 12.7578 13.4676C12.7578 13.1964 12.577 12.9955 12.2857 12.9955H10.0759V12.0313H11.683C13.5513 12.0313 14.7567 10.7958 14.7567 9.08817C14.7567 7.36049 13.5814 6.125 11.7232 6.125H9.31247C8.83032 6.125 8.52898 6.43638 8.52898 6.93862V11.077H7.66514C7.37385 11.077 7.19305 11.2779 7.19305 11.5592C7.19305 11.8304 7.37385 12.0313 7.66514 12.0313H8.52898V12.9955H7.67519C7.38389 12.9955 7.20309 13.1964 7.20309 13.4676C7.20309 13.7489 7.38389 13.9498 7.67519 13.9498H8.52898V14.7835C8.52898 15.2455 8.85041 15.5569 9.31247 15.5569ZM10.0859 10.7054V7.49107H11.4218C12.587 7.49107 13.1997 8.1038 13.1997 9.09822C13.1997 10.0926 12.577 10.7254 11.4218 10.7254L10.0859 10.7054Z" fill="#05AAFF"/>
</svg>
