<svg width="32" height="11" viewBox="0 0 32 11" fill="none" xmlns="http://www.w3.org/2000/svg">
<path d="M0 9.94V0.14H3.43C4.046 0.14 4.58267 0.214667 5.04 0.364C5.50667 0.513333 5.894 0.718667 6.202 0.98C6.51 1.24133 6.74333 1.554 6.902 1.918C7.06067 2.27267 7.14 2.66 7.14 3.08C7.14 3.73333 6.944 4.30733 6.552 4.802C6.16933 5.28733 5.6 5.628 4.844 5.824L7.42 9.94H5.866L3.528 5.992H1.316V9.94H0ZM1.316 4.872H3.29C3.738 4.872 4.12067 4.83 4.438 4.746C4.76467 4.65267 5.03067 4.53133 5.236 4.382C5.44133 4.22333 5.59067 4.032 5.684 3.808C5.77733 3.584 5.824 3.34133 5.824 3.08C5.824 2.80933 5.77733 2.56667 5.684 2.352C5.59067 2.128 5.44133 1.94133 5.236 1.792C5.03067 1.63333 4.76467 1.512 4.438 1.428C4.12067 1.33467 3.738 1.288 3.29 1.288H1.316V4.872Z" fill="#A3A3A3"/>
<path d="M15.3545 10.08C14.7665 10.08 14.2345 9.996 13.7585 9.828C13.2919 9.66 12.8905 9.40333 12.5545 9.058C12.2185 8.71267 11.9572 8.27867 11.7705 7.756C11.5932 7.224 11.5045 6.59867 11.5045 5.88V0.14H12.8205V5.88C12.8205 6.412 12.8765 6.86933 12.9885 7.252C13.1099 7.63467 13.2779 7.94733 13.4925 8.19C13.7072 8.43267 13.9732 8.61467 14.2905 8.736C14.6079 8.848 14.9625 8.904 15.3545 8.904C15.7465 8.904 16.1012 8.848 16.4185 8.736C16.7359 8.61467 17.0019 8.43267 17.2165 8.19C17.4312 7.94733 17.5945 7.63467 17.7065 7.252C17.8279 6.86933 17.8885 6.412 17.8885 5.88V0.14H19.2045V5.88C19.2045 6.59867 19.1112 7.224 18.9245 7.756C18.7472 8.27867 18.4905 8.71267 18.1545 9.058C17.8185 9.40333 17.4125 9.66 16.9365 9.828C16.4699 9.996 15.9425 10.08 15.3545 10.08Z" fill="#A3A3A3"/>
<path d="M27.3603 10.08C26.7723 10.08 26.2589 10.01 25.8203 9.87C25.3816 9.73 25.0129 9.53867 24.7143 9.296C24.4156 9.044 24.1776 8.75467 24.0003 8.428C23.8323 8.092 23.7156 7.73267 23.6503 7.35H24.9663C25.0129 7.56467 25.0923 7.77 25.2043 7.966C25.3163 8.15267 25.4656 8.316 25.6523 8.456C25.8483 8.596 26.0863 8.708 26.3663 8.792C26.6463 8.86667 26.9776 8.904 27.3603 8.904C27.7523 8.904 28.0976 8.86667 28.3963 8.792C28.6949 8.708 28.9423 8.596 29.1383 8.456C29.3436 8.316 29.4976 8.15267 29.6003 7.966C29.7029 7.77933 29.7543 7.574 29.7543 7.35C29.7543 7.07933 29.7076 6.85067 29.6143 6.664C29.5303 6.47733 29.3809 6.314 29.1663 6.174C28.9609 6.034 28.6856 5.908 28.3403 5.796C28.0043 5.684 27.5889 5.572 27.0943 5.46C26.5529 5.33867 26.0816 5.208 25.6803 5.068C25.2789 4.91867 24.9476 4.73667 24.6863 4.522C24.4343 4.298 24.2429 4.032 24.1123 3.724C23.9909 3.416 23.9303 3.038 23.9303 2.59C23.9303 2.226 24.0096 1.89 24.1683 1.582C24.3269 1.26467 24.5509 0.989333 24.8403 0.756C25.1389 0.522667 25.4983 0.340666 25.9183 0.21C26.3476 0.0699999 26.8283 0 27.3603 0C27.8829 0 28.3403 0.0699999 28.7323 0.21C29.1243 0.340666 29.4556 0.522667 29.7263 0.756C30.0063 0.989333 30.2256 1.26467 30.3843 1.582C30.5429 1.89 30.6549 2.226 30.7203 2.59H29.4043C29.3576 2.394 29.2876 2.212 29.1943 2.044C29.1009 1.86667 28.9703 1.71733 28.8023 1.596C28.6436 1.46533 28.4429 1.36267 28.2003 1.288C27.9669 1.21333 27.6869 1.176 27.3603 1.176C27.0243 1.176 26.7256 1.21333 26.4643 1.288C26.2029 1.36267 25.9789 1.46533 25.7923 1.596C25.6149 1.71733 25.4796 1.86667 25.3863 2.044C25.2929 2.212 25.2463 2.394 25.2463 2.59C25.2463 2.842 25.2929 3.06133 25.3863 3.248C25.4796 3.42533 25.6243 3.57933 25.8203 3.71C26.0163 3.84067 26.2636 3.95733 26.5623 4.06C26.8703 4.16267 27.2343 4.26067 27.6543 4.354C28.2609 4.48467 28.7789 4.634 29.2083 4.802C29.6469 4.97 30.0016 5.17067 30.2723 5.404C30.5523 5.628 30.7529 5.89867 30.8743 6.216C31.0049 6.53333 31.0703 6.91133 31.0703 7.35C31.0703 7.73267 30.9863 8.092 30.8183 8.428C30.6503 8.75467 30.4076 9.044 30.0903 9.296C29.7729 9.53867 29.3856 9.73 28.9283 9.87C28.4709 10.01 27.9483 10.08 27.3603 10.08Z" fill="#A3A3A3"/>
</svg>
