<svg width="28" height="10" viewBox="0 0 28 10" fill="none" xmlns="http://www.w3.org/2000/svg">
<path d="M0 9.88966V0.124138H4.1077C4.57662 0.124138 5.04085 0.170115 5.50038 0.262069C5.9693 0.344828 6.39601 0.501149 6.78053 0.731034C7.16504 0.960919 7.46983 1.28736 7.69491 1.71034C7.92937 2.12414 8.0466 2.65747 8.0466 3.31034C8.0466 3.75172 7.97157 4.16092 7.82152 4.53793C7.67147 4.91494 7.44639 5.24138 7.14628 5.51724C6.85555 5.7931 6.48511 6.0092 6.03495 6.16552L8.29981 9.88966H5.7114L3.78415 6.52414H2.27893V9.88966H0ZM2.27893 4.55172H4.03737C4.30934 4.55172 4.54849 4.52874 4.75481 4.48276C4.97051 4.42759 5.15339 4.35402 5.30344 4.26207C5.45349 4.16092 5.56603 4.03218 5.64106 3.87586C5.72546 3.71954 5.77236 3.53103 5.78173 3.31034C5.78173 3.0069 5.70671 2.77701 5.55665 2.62069C5.41598 2.46437 5.22372 2.35402 4.97989 2.28966C4.73605 2.22529 4.4547 2.1931 4.13584 2.1931H2.27893V4.55172Z" fill="#A3A3A3"/>
<path d="M14.0843 10C13.0996 10 12.2883 9.82529 11.6506 9.47586C11.0129 9.12644 10.5393 8.61149 10.2298 7.93103C9.9297 7.25057 9.77965 6.42299 9.77965 5.44828V0.124138H12.0586V5.57241C12.0586 5.96782 12.1195 6.34483 12.2415 6.70345C12.3634 7.06207 12.5744 7.35632 12.8745 7.58621C13.1746 7.8069 13.5872 7.91724 14.1124 7.91724C14.647 7.91724 15.0503 7.8023 15.3222 7.57241C15.6036 7.34253 15.7958 7.04828 15.899 6.68965C16.0115 6.33103 16.0678 5.95862 16.0678 5.57241V0.124138H18.3467V5.44828C18.3467 6.41379 18.1967 7.23678 17.8966 7.91724C17.5965 8.5977 17.1322 9.11724 16.5039 9.47586C15.8756 9.82529 15.069 10 14.0843 10Z" fill="#A3A3A3"/>
<path d="M24.0892 10C23.3765 10 22.7153 9.88966 22.1057 9.66897C21.4961 9.43908 20.9897 9.08506 20.5864 8.6069C20.1925 8.11954 19.9487 7.49885 19.8549 6.74483H22.162C22.237 7.02988 22.373 7.25977 22.57 7.43448C22.7763 7.60919 23.0248 7.73793 23.3155 7.82069C23.6063 7.89425 23.9157 7.93103 24.244 7.93103C24.4691 7.93103 24.6941 7.90805 24.9192 7.86207C25.1443 7.8069 25.3319 7.71494 25.4819 7.58621C25.632 7.45747 25.707 7.27816 25.707 7.04828C25.707 6.87356 25.6648 6.73563 25.5804 6.63448C25.496 6.52414 25.3741 6.43678 25.2146 6.37241C25.0646 6.29885 24.877 6.23448 24.6519 6.17931C24.5113 6.14253 24.3659 6.11034 24.2158 6.08276C24.0658 6.05517 23.9204 6.02299 23.7798 5.98621C23.6391 5.94942 23.4984 5.90805 23.3577 5.86207C22.9357 5.76092 22.5324 5.64598 22.1479 5.51724C21.7634 5.37931 21.4211 5.2046 21.121 4.9931C20.8303 4.78161 20.6005 4.50575 20.4317 4.16552C20.2629 3.82529 20.1785 3.4023 20.1785 2.89655C20.1785 2.4092 20.2629 1.9954 20.4317 1.65517C20.6099 1.30575 20.8443 1.02529 21.1351 0.813792C21.4352 0.593103 21.7587 0.427586 22.1057 0.317241C22.4621 0.197701 22.8138 0.114942 23.1608 0.0689654C23.5172 0.0229885 23.8454 0 24.1455 0C24.8114 0 25.4022 0.11954 25.918 0.35862C26.4432 0.597701 26.8652 0.951724 27.1841 1.42069C27.5123 1.88046 27.7093 2.45057 27.7749 3.13103H25.5663C25.5288 2.89195 25.4303 2.69425 25.2709 2.53793C25.1209 2.38161 24.9239 2.26207 24.6801 2.17931C24.4456 2.09655 24.1736 2.05517 23.8642 2.05517C23.6766 2.05517 23.4937 2.07356 23.3155 2.11034C23.1467 2.13793 22.9967 2.18391 22.8654 2.24828C22.7435 2.31264 22.6403 2.4 22.5559 2.51034C22.4809 2.61149 22.4433 2.74023 22.4433 2.89655C22.4433 3.06207 22.4996 3.2046 22.6122 3.32414C22.7247 3.43448 22.8841 3.53103 23.0905 3.61379C23.3062 3.69655 23.5687 3.77931 23.8782 3.86207C24.0939 3.93563 24.3143 3.9954 24.5394 4.04138C24.7739 4.07816 24.9989 4.12874 25.2146 4.1931C25.6085 4.28506 25.9696 4.3954 26.2978 4.52414C26.6355 4.64368 26.9309 4.8 27.1841 4.9931C27.4373 5.17701 27.6342 5.42529 27.7749 5.73793C27.925 6.04138 28 6.42759 28 6.89655C28 7.46667 27.8921 7.94943 27.6764 8.34483C27.4607 8.73103 27.1653 9.04827 26.7902 9.29655C26.4151 9.54483 25.993 9.72414 25.5241 9.83448C25.0646 9.94483 24.5863 10 24.0892 10Z" fill="#A3A3A3"/>
</svg>
