<svg width="16" height="18" viewBox="0 0 16 18" fill="none" xmlns="http://www.w3.org/2000/svg">
<path d="M4.54185 17.5159H11.4651C12.6253 17.5159 13.3711 16.8153 13.4314 15.6551L13.9361 4.80689H14.7648C15.149 4.80689 15.4428 4.50555 15.4428 4.12888C15.4428 3.75221 15.1415 3.46593 14.7648 3.46593H11.4199V2.33591C11.4199 1.17576 10.6816 0.497742 9.42355 0.497742H6.56083C5.30273 0.497742 4.56445 1.17576 4.56445 2.33591V3.46593H1.23465C0.85798 3.46593 0.556641 3.75974 0.556641 4.12888C0.556641 4.51309 0.85798 4.80689 1.23465 4.80689H2.06334L2.56808 15.6551C2.62835 16.8228 3.36663 17.5159 4.54185 17.5159ZM5.97321 2.40371C5.97321 2.01951 6.24442 1.7709 6.65876 1.7709H9.32561C9.73996 1.7709 10.0112 2.01951 10.0112 2.40371V3.46593H5.97321V2.40371ZM4.69252 16.1674C4.27818 16.1674 3.97684 15.8585 3.95424 15.414L3.4495 4.80689H12.5273L12.0377 15.414C12.0226 15.866 11.7288 16.1674 11.2994 16.1674H4.69252ZM5.77734 14.9545C6.10128 14.9545 6.30469 14.7511 6.29715 14.4498L6.07115 6.56973C6.06362 6.26839 5.85268 6.07252 5.54381 6.07252C5.2274 6.07252 5.024 6.27592 5.03153 6.57726L5.25753 14.4573C5.26507 14.7586 5.476 14.9545 5.77734 14.9545ZM7.99972 14.9545C8.31613 14.9545 8.5346 14.7586 8.5346 14.4573V6.57726C8.5346 6.27592 8.31613 6.07252 7.99972 6.07252C7.68331 6.07252 7.47238 6.27592 7.47238 6.57726V14.4573C7.47238 14.7586 7.68331 14.9545 7.99972 14.9545ZM10.2221 14.962C10.5234 14.962 10.7344 14.7586 10.7419 14.4573L10.9679 6.57726C10.9754 6.27592 10.772 6.08005 10.4556 6.08005C10.1468 6.08005 9.93583 6.27592 9.92829 6.57726L9.70229 14.4573C9.69475 14.7511 9.89816 14.962 10.2221 14.962Z" fill="black"/>
</svg>
